{
	"asset":{
		"generator":"Khronos glTF Blender I/O v4.1.63",
		"version":"2.0"
	},
	"scene":0,
	"scenes":[
		{
			"name":"Scene",
			"nodes":[
				9
			]
		}
	],
	"nodes":[
		{
			"name":"Road  6",
			"rotation":[
				-0.70710688829422,
				0,
				0,
				0.7071066498756409
			],
			"scale":[
				200,
				199.99998474121094,
				99.99999237060547
			],
			"translation":[
				1.9891798496246338,
				0,
				99.99999237060547
			]
		},
		{
			"name":"Road 1",
			"rotation":[
				-0.70710688829422,
				0,
				0,
				0.7071066498756409
			],
			"scale":[
				396.8265380859375,
				199.99998474121094,
				99.99999237060547
			],
			"translation":[
				0.6667718291282654,
				0,
				-401.7377014160156
			]
		},
		{
			"name":"Road 2",
			"rotation":[
				-0.70710688829422,
				0,
				0,
				0.7071066498756409
			],
			"scale":[
				299.4916076660156,
				199.99998474121094,
				99.99999237060547
			],
			"translation":[
				800.00341796875,
				0,
				-401.7377014160156
			]
		},
		{
			"name":"Road 3",
			"rotation":[
				-0.70710688829422,
				0,
				0,
				0.7071066498756409
			],
			"scale":[
				298.1654357910156,
				199.2913055419922,
				99.99999237060547
			],
			"translation":[
				-799.2857666015625,
				0,
				-401.7377014160156
			]
		},
		{
			"name":"Road 4",
			"rotation":[
				-0.70710688829422,
				0,
				0,
				0.7071066498756409
			],
			"scale":[
				200,
				199.99998474121094,
				99.99999237060547
			],
			"translation":[
				-500.8273620605469,
				0,
				99.99999237060547
			]
		},
		{
			"mesh":0,
			"name":"Road 5_Material.006_0",
			"scale":[
				10,
				10,
				10
			],
			"translation":[
				-5.536221504211426,
				0,
				2.2669832706451416
			]
		},
		{
			"children":[
				5
			],
			"name":"Road 5",
			"rotation":[
				-0.70710688829422,
				0,
				0,
				0.7071066498756409
			],
			"scale":[
				200,
				199.99998474121094,
				99.99999237060547
			],
			"translation":[
				501.0862731933594,
				0,
				99.99999237060547
			]
		},
		{
			"children":[
				0,
				1,
				2,
				3,
				4,
				6
			],
			"name":"RootNode"
		},
		{
			"children":[
				7
			],
			"name":"7caa157fdc234093992b4ce1ef0cc6b0.fbx",
			"rotation":[
				0.70710688829422,
				0,
				0,
				0.7071066498756409
			],
			"scale":[
				0.009999999776482582,
				0.010000000707805157,
				0.010000000707805157
			]
		},
		{
			"children":[
				8
			],
			"name":"Sketchfab_model",
			"rotation":[
				-0.70710688829422,
				0,
				0,
				0.7071066498756409
			]
		}
	],
	"materials":[
		{
			"doubleSided":true,
			"name":"Material.006",
			"pbrMetallicRoughness":{
				"baseColorTexture":{
					"index":0
				},
				"metallicFactor":0,
				"roughnessFactor":0.8669999837875366
			}
		}
	],
	"meshes":[
		{
			"name":"Road 5_Material.006_0",
			"primitives":[
				{
					"attributes":{
						"POSITION":0,
						"NORMAL":1,
						"TEXCOORD_0":2
					},
					"indices":3,
					"material":0
				}
			]
		}
	],
	"textures":[
		{
			"sampler":0,
			"source":0
		}
	],
	"images":[
		{
			"mimeType":"image/jpeg",
			"name":"Material.006_baseColor",
			"uri":"Material_006_baseColor.jpg"
		}
	],
	"accessors":[
		{
			"bufferView":0,
			"componentType":5126,
			"count":44000,
			"max":[
				1,
				1999,
				0.08839516341686249
			],
			"min":[
				-1,
				-1,
				0
			],
			"type":"VEC3"
		},
		{
			"bufferView":1,
			"componentType":5126,
			"count":44000,
			"type":"VEC3"
		},
		{
			"bufferView":2,
			"componentType":5126,
			"count":44000,
			"type":"VEC2"
		},
		{
			"bufferView":3,
			"componentType":5123,
			"count":66000,
			"type":"SCALAR"
		}
	],
	"bufferViews":[
		{
			"buffer":0,
			"byteLength":528000,
			"byteOffset":0,
			"target":34962
		},
		{
			"buffer":0,
			"byteLength":528000,
			"byteOffset":528000,
			"target":34962
		},
		{
			"buffer":0,
			"byteLength":352000,
			"byteOffset":1056000,
			"target":34962
		},
		{
			"buffer":0,
			"byteLength":132000,
			"byteOffset":1408000,
			"target":34963
		}
	],
	"samplers":[
		{
			"magFilter":9729,
			"minFilter":9987
		}
	],
	"buffers":[
		{
			"byteLength":1540000,
			"uri":"long%20road.bin"
		}
	]
}
