{
	"asset":{
		"generator":"Khronos glTF Blender I/O v4.1.63",
		"version":"2.0"
	},
	"scene":0,
	"scenes":[
		{
			"name":"Scene",
			"nodes":[
				4
			]
		}
	],
	"nodes":[
		{
			"mesh":0,
			"name":"Cylinder_Material.001_0",
			"scale":[
				70,
				70,
				70
			]
		},
		{
			"children":[
				0
			],
			"name":"Cylinder",
			"rotation":[
				-0.70710688829422,
				0,
				0,
				0.7071066498756409
			],
			"scale":[
				100,
				99.99999237060547,
				99.99999237060547
			]
		},
		{
			"children":[
				1
			],
			"name":"RootNode"
		},
		{
			"children":[
				2
			],
			"name":"Colacan.fbx",
			"rotation":[
				0.70710688829422,
				0,
				0,
				0.7071066498756409
			]
		},
		{
			"children":[
				3
			],
			"name":"Sketchfab_model"
		}
	],
	"animations":[
		{
			"channels":[
				{
					"sampler":0,
					"target":{
						"node":0,
						"path":"translation"
					}
				},
				{
					"sampler":1,
					"target":{
						"node":0,
						"path":"rotation"
					}
				},
				{
					"sampler":2,
					"target":{
						"node":0,
						"path":"scale"
					}
				}
			],
			"name":"Cylinder_Material.001_0Action.001",
			"samplers":[
				{
					"input":4,
					"interpolation":"STEP",
					"output":5
				},
				{
					"input":6,
					"interpolation":"LINEAR",
					"output":7
				},
				{
					"input":4,
					"interpolation":"STEP",
					"output":8
				}
			]
		}
	],
	"materials":[
		{
			"doubleSided":true,
			"name":"Material.002",
			"normalTexture":{
				"index":0
			},
			"pbrMetallicRoughness":{
				"baseColorTexture":{
					"index":1
				},
				"metallicRoughnessTexture":{
					"index":2
				},
				"roughnessFactor":0.3168181777000427
			}
		}
	],
	"meshes":[
		{
			"name":"Cylinder_Material.001_0.001",
			"primitives":[
				{
					"attributes":{
						"POSITION":0,
						"NORMAL":1,
						"TEXCOORD_0":2
					},
					"indices":3,
					"material":0
				}
			]
		}
	],
	"textures":[
		{
			"sampler":0,
			"source":0
		},
		{
			"sampler":0,
			"source":1
		},
		{
			"sampler":0,
			"source":2
		}
	],
	"images":[
		{
			"mimeType":"image/png",
			"name":"Material.001_normal",
			"uri":"textures/Material_001_normal.png"
		},
		{
			"mimeType":"image/png",
			"name":"Material.001_baseColor",
			"uri":"textures/Material_001_baseColor.png"
		},
		{
			"mimeType":"image/png",
			"name":"Material.001_metallicRoughness",
			"uri":"textures/Material_001_metallicRoughness.png"
		}
	],
	"accessors":[
		{
			"bufferView":0,
			"componentType":5126,
			"count":227,
			"max":[
				0.03182949870824814,
				0.03182949870824814,
				0.05395693704485893
			],
			"min":[
				-0.03182949870824814,
				-0.03182949870824814,
				-0.060706909745931625
			],
			"type":"VEC3"
		},
		{
			"bufferView":1,
			"componentType":5126,
			"count":227,
			"type":"VEC3"
		},
		{
			"bufferView":2,
			"componentType":5126,
			"count":227,
			"type":"VEC2"
		},
		{
			"bufferView":3,
			"componentType":5123,
			"count":1140,
			"type":"SCALAR"
		},
		{
			"bufferView":4,
			"componentType":5126,
			"count":2,
			"max":[
				2.5
			],
			"min":[
				0
			],
			"type":"SCALAR"
		},
		{
			"bufferView":5,
			"componentType":5126,
			"count":2,
			"type":"VEC3"
		},
		{
			"bufferView":6,
			"componentType":5126,
			"count":61,
			"max":[
				2.5
			],
			"min":[
				0
			],
			"type":"SCALAR"
		},
		{
			"bufferView":7,
			"componentType":5126,
			"count":61,
			"type":"VEC4"
		},
		{
			"bufferView":8,
			"componentType":5126,
			"count":2,
			"type":"VEC3"
		}
	],
	"bufferViews":[
		{
			"buffer":0,
			"byteLength":2724,
			"byteOffset":0,
			"target":34962
		},
		{
			"buffer":0,
			"byteLength":2724,
			"byteOffset":2724,
			"target":34962
		},
		{
			"buffer":0,
			"byteLength":1816,
			"byteOffset":5448,
			"target":34962
		},
		{
			"buffer":0,
			"byteLength":2280,
			"byteOffset":7264,
			"target":34963
		},
		{
			"buffer":0,
			"byteLength":8,
			"byteOffset":9544
		},
		{
			"buffer":0,
			"byteLength":24,
			"byteOffset":9552
		},
		{
			"buffer":0,
			"byteLength":244,
			"byteOffset":9576
		},
		{
			"buffer":0,
			"byteLength":976,
			"byteOffset":9820
		},
		{
			"buffer":0,
			"byteLength":24,
			"byteOffset":10796
		}
	],
	"samplers":[
		{
			"magFilter":9729,
			"minFilter":9987
		}
	],
	"buffers":[
		{
			"byteLength":10820,
			"uri":"cola.bin"
		}
	]
}
