{
	"asset":{
		"generator":"Khronos glTF Blender I/O v4.1.63",
		"version":"2.0"
	},
	"scene":0,
	"scenes":[
		{
			"name":"Scene",
			"nodes":[
				4,
				5
			]
		}
	],
	"nodes":[
		{
			"mesh":0,
			"name":"tunnel_2_tunnel_road_texture_0"
		},
		{
			"children":[
				0
			],
			"name":"tunnel_2"
		},
		{
			"children":[
				1
			],
			"name":"RootNode"
		},
		{
			"children":[
				2
			],
			"name":"dacd20ca2e674f39a5e9eae13b016a21.fbx"
		},
		{
			"children":[
				3
			],
			"name":"Sketchfab_model"
		},
		{
			"name":"Empty",
			"rotation":[
				0,
				-0.3826834261417389,
				0,
				0.9238795638084412
			],
			"translation":[
				-2.439892292022705,
				0.15178997814655304,
				-0.35242798924446106
			]
		}
	],
	"materials":[
		{
			"doubleSided":true,
			"name":"tunnel_road_texture",
			"pbrMetallicRoughness":{
				"baseColorTexture":{
					"index":0
				},
				"metallicFactor":0,
				"roughnessFactor":0.6000000238418579
			}
		}
	],
	"meshes":[
		{
			"name":"tunnel_2_tunnel_road_texture_0",
			"primitives":[
				{
					"attributes":{
						"POSITION":0,
						"NORMAL":1,
						"TEXCOORD_0":2
					},
					"indices":3,
					"material":0
				}
			]
		}
	],
	"textures":[
		{
			"sampler":0,
			"source":0
		}
	],
	"images":[
		{
			"mimeType":"image/jpeg",
			"name":"tunnel_road_texture_baseColor",
			"uri":"textures/tunnel_road_texture_baseColor.jpg"
		}
	],
	"accessors":[
		{
			"bufferView":0,
			"componentType":5126,
			"count":3696,
			"max":[
				6.414015769958496,
				0.06635736674070358,
				6.412720680236816
			],
			"min":[
				-6.411395072937012,
				-0.06454453617334366,
				-6.412688732147217
			],
			"type":"VEC3"
		},
		{
			"bufferView":1,
			"componentType":5126,
			"count":3696,
			"type":"VEC3"
		},
		{
			"bufferView":2,
			"componentType":5126,
			"count":3696,
			"type":"VEC2"
		},
		{
			"bufferView":3,
			"componentType":5123,
			"count":14382,
			"type":"SCALAR"
		}
	],
	"bufferViews":[
		{
			"buffer":0,
			"byteLength":44352,
			"byteOffset":0,
			"target":34962
		},
		{
			"buffer":0,
			"byteLength":44352,
			"byteOffset":44352,
			"target":34962
		},
		{
			"buffer":0,
			"byteLength":29568,
			"byteOffset":88704,
			"target":34962
		},
		{
			"buffer":0,
			"byteLength":28764,
			"byteOffset":118272,
			"target":34963
		}
	],
	"samplers":[
		{
			"magFilter":9729,
			"minFilter":9987
		}
	],
	"buffers":[
		{
			"byteLength":147036,
			"uri":"untitled.bin"
		}
	]
}
